<svg id="Layer_1" data-name="Layer 1" xmlns="http://www.w3.org/2000/svg" viewBox="0 0 566.93 566.93"><defs><style>.cls-1{fill:#52783d;}.cls-2{fill:#c7811d;}.cls-3{fill:#231f20;}</style></defs><title>50 лет</title><path class="cls-1" d="M341.8149,339.3032l.585-4.9951a5.62614,5.62614,0,0,0,1.9351.3149c4.3198,0,6.3896-4.1845,6.3896-17.9541v-9.0898h21.9141V339.438h-5.67V312.5293H356.1694v4.9048c0,15.5244-2.9248,22.3188-10.5747,22.3188A16.14146,16.14146,0,0,1,341.8149,339.3032Z"/><path class="cls-1" d="M379.6592,307.5791h21.104v4.9502H385.3291v8.0996h14.6245v4.7695H385.3291v8.9995h16.2441v5.0401h-21.914Z"/><path class="cls-1" d="M413.5435,312.5293h-9.7647v-4.9502h25.1987v4.9502h-9.7646V339.438h-5.6694Z"/><path class="cls-2" d="M267.1987,455.498h20.0244v6.5694H274.8936v25.289h-7.6949Z"/><path class="cls-2" d="M296.5835,455.498h7.4697l13.2295,31.8584h-8.5498l-2.4746-6.2548H293.9287l-2.3398,6.2548h-8.3697Zm7.5596,19.4395-3.9595-10.9346-4.0498,10.9346Z"/><path class="cls-2" d="M319.9385,455.498h11.6997c6.9746,0,12.4643,2.5196,12.4643,9.8096,0,7.3799-5.9843,10.0342-12.6445,10.0342h-3.8247v12.0146h-7.6948Zm10.9345,13.7247c2.8799,0,5.5352-.8555,5.5352-3.8702,0-3.0595-2.6553-3.6445-5.3999-3.6445h-3.375v7.5147Z"/><path class="cls-2" d="M355.4883,455.498h7.4697l13.2295,31.8584h-8.5498l-2.4746-6.2548H352.8335l-2.3398,6.2548H342.124Zm7.5596,19.4395-3.9595-10.9346-4.0498,10.9346Z"/><path class="cls-2" d="M378.8433,455.498h7.6948v12.0596h12.4194V455.498h7.6948v31.8584h-7.6948V474.0371H386.5381v13.3193h-7.6948Z"/><path class="cls-2" d="M419.1631,462.0674h-8.9995V455.498h25.6938v6.5694h-8.9995v25.289h-7.6948Z"/><path class="cls-2" d="M439.3677,455.498h7.605v20.9688h.1796l12.2398-20.9688h8.0996v31.8584h-7.6045V466.8828h-.1352l-12.1495,20.4736h-8.2348Z"/><path class="cls-2" d="M479.5977,474.3525a9.01566,9.01566,0,0,1-6.2998-9.0449c0-7.29,5.7597-9.8096,12.5542-9.8096h11.6997v31.8584h-7.6949V475.5225h-2.6997l-6.7046,11.8339h-8.8647Zm10.2592-4.6796v-8.0547h-3.5996c-2.9702,0-5.3999.8994-5.3999,3.9589,0,3.0157,2.565,4.0958,5.6699,4.0958Z"/><path class="cls-3" d="M351.8188,124.94381a9.3188,9.3188,0,1,1,9.3189-9.31881A9.329,9.329,0,0,1,351.8188,124.94381Zm0-14.6376a5.3188,5.3188,0,1,0,5.3189,5.31879A5.32507,5.32507,0,0,0,351.8188,110.30621Z"/><rect class="cls-2" x="419.1699" y="181.75" width="10.7764" height="4"/><rect class="cls-2" x="448.5547" y="181.75" width="10.7764" height="4"/><rect class="cls-2" x="437.2505" y="193.0542" width="4" height="10.7764"/><rect class="cls-2" x="437.2505" y="163.6694" width="4" height="10.7764"/><path class="cls-1" d="M262.5474,128.66651h-5v-4h5Zm-10,0h-5v-4h5Zm-10,0h-5v-4h5Zm-10,0h-5v-4h5Zm-10,0h-5v-4h5Zm-10,0h-5v-4h5Z"/><path class="cls-1" d="M440.1021,434.8394l-1.7032-3.6192c1.3423-.6318,2.6934-1.3047,4.0157-2.001l1.8632,3.5401C442.9028,433.4829,441.498,434.1826,440.1021,434.8394Zm8.6235-4.5606-2.0322-3.4453c1.4003-.8262,2.7998-1.6982,4.1587-2.5908l2.1962,3.3427C451.6362,428.5137,450.1816,429.4194,448.7256,430.2788Zm8.5112-5.5903-2.3535-3.2344c1.312-.9546,2.6226-1.9565,3.896-2.978l2.5029,3.1201C459.9604,422.6567,458.5991,423.6973,457.2368,424.6885Zm7.9419-6.3697-2.6465-2.999c1.2212-1.0781,2.4346-2.1987,3.6055-3.331l2.7803,2.8755C467.7036,416.0386,466.4458,417.2012,465.1787,418.3188Zm7.3169-7.0751-2.9072-2.7471c1.1133-1.1787,2.2207-2.4048,3.2915-3.6445l3.0273,2.6152C474.7974,408.7515,473.6499,410.022,472.4956,411.2437Zm6.6528-7.6988-3.1386-2.4795c1.0083-1.2763,2.0053-2.5957,2.9629-3.9214l3.2421,2.3428C481.2241,400.8584,480.1924,402.2236,479.1484,403.5449Zm5.9566-8.2427-3.3389-2.2031c.8975-1.3594,1.7798-2.7593,2.6226-4.1606l3.4277,2.0625C486.9448,392.4492,486.0322,393.8965,485.105,395.3022Zm5.2422-8.7089-3.5088-1.9204c.7803-1.4258,1.5454-2.8936,2.2739-4.3638l3.584,1.7763C491.9434,383.604,491.1533,385.1206,490.3472,386.5933Zm4.5146-9.104-3.6514-1.6329c.6646-1.4858,1.3106-3.0107,1.9205-4.5332l3.7128,1.4873C496.2148,374.3813,495.5479,375.9556,494.8618,377.4893Zm3.7798-9.4297-3.7686-1.3418c.5489-1.5415,1.0748-3.11331,1.5625-4.67092l3.8174,1.19628C499.7495,364.84912,499.2075,366.4697,498.6416,368.0596Zm3.0469-9.72806-3.8848-.95459.0288-.10888c.4224-1.55664.8413-3.14649,1.249-4.75293l3.877.98437Q502.3381,355.94141,501.6885,358.33154Zm2.4653-9.72509-3.8945-.91309q.56325-2.40089,1.0844-4.83986l3.9122.834Q504.727,346.16675,504.1538,348.60645Zm2.1011-9.86325-3.9297-.7481q.4614-2.42355.8682-4.8755l3.9462.6533Q506.72665,336.2713,506.2549,338.7432Z"/><circle class="cls-1" cx="101.65987" cy="131.96581" r="6.29912"/><rect class="cls-1" x="240.4844" y="441.5708" width="8.1821" height="4"/><rect class="cls-1" x="262.7959" y="441.5708" width="8.1826" height="4"/><rect class="cls-1" x="253.7314" y="450.6353" width="4" height="8.1821"/><rect class="cls-1" x="253.7314" y="428.3237" width="4" height="8.1822"/><circle class="cls-2" cx="256.5951" cy="200.3805" r="7.3188"/><circle class="cls-2" cx="385.6812" cy="272.30048" r="7.31883"/><circle class="cls-2" cx="105.6599" cy="451.75" r="7.3188"/><path class="cls-3" d="M105.6597,292.7837a9.31885,9.31885,0,1,1,9.3188-9.3189A9.329,9.329,0,0,1,105.6597,292.7837Zm0-14.6377a5.31885,5.31885,0,1,0,5.3188,5.3188A5.32473,5.32473,0,0,0,105.6597,278.146Z"/><path class="cls-3" d="M508.1812,261.6313a9.3188,9.3188,0,1,1,9.3188-9.3188A9.32906,9.32906,0,0,1,508.1812,261.6313Zm0-14.6376a5.3188,5.3188,0,1,0,5.3188,5.3188A5.3251,5.3251,0,0,0,508.1812,246.9937Z"/><circle class="cls-1" cx="283.465" cy="414.3711" r="6.2991"/><circle class="cls-1" cx="514.48038" cy="481.05758" r="6.29915"/><path class="cls-1" d="M242.4588,302.4247c-22.2873-45.8857-53.5333-48.3756-56.6441-48.5479l-.8052.0828.1391-.0894H104.9297l12.3688-114.4127a6.37075,6.37075,0,0,1,6.3339-5.686H263.8097l-19.2182,38.6081a6.371,6.371,0,0,1-5.7033,3.5318H155.7431l-3.8724,35.8189h33.026c7.2318-.118,44.0774-3.3244,80.9576,48.941Z"/><path class="cls-1" d="M382.9252,436.9527a113.16279,113.16279,0,0,1-51.7078-12.5257l-.084-.0433c-19.783-10.3287-32.4139-21.8469-40.7584-35.6337l22.2038-41.83784c9.7789,15.83923,25.0893,33.33824,38.0265,40.10034a69.87491,69.87491,0,0,0,32.3199,7.8003,70.682,70.682,0,1,0-58.8005-109.9221l-.5306.7562a113.32972,113.32972,0,0,0-11.2502,18.6375l-.3427.7452c-3.3726,6.9865-33.5687,68.8899-54.9972,90.9311-24.7542,25.4617-50.2801,37.8386-78.0359,37.8386-13.7989,0-28.8557-.9799-45.4508-8.0894-18.4274-7.8947-35.144-21.9336-51.1048-42.9191l33.5413-25.51c26.1471,34.37856,46.589,34.37856,63.0143,34.37856,15.995,0,31.1906-7.967,47.8219-25.0738,12.5174-12.87513,35.4677-55.4979,47.1168-79.5752a152.31712,152.31712,0,0,1,15.4563-25.9435,112.82587,112.82587,0,1,1,93.5621,175.8858Z"/></svg>