<svg id="Layer_1" data-name="Layer 1" xmlns="http://www.w3.org/2000/svg" viewBox="0 0 566.92999 566.93"><defs><style>.cls-1{fill:#52783d;}.cls-2{fill:#c7811d;}.cls-3{fill:#fff;}.cls-4{fill:#231f20;}.cls-5{fill:#1f191a;}</style></defs><title>личный кабинет</title><circle class="cls-1" cx="285.7127" cy="261.7664" r="82.5483"/><circle class="cls-2" cx="501.84287" cy="271.1615" r="20.17183"/><polygon class="cls-3" points="512.072 270.625 496.728 261.766 496.728 279.484 512.072 270.625"/><circle class="cls-2" cx="127.3755" cy="422.5" r="8.1289"/><path class="cls-2" d="M67.1014,406.7549a31.23805,31.23805,0,1,1,31.2383-31.2383A31.27358,31.27358,0,0,1,67.1014,406.7549Zm0-58.47609A27.238,27.238,0,1,0,94.3397,375.5166,27.26852,27.26852,0,0,0,67.1014,348.27881Z"/><path class="cls-1" d="M514.9627,113.35321c0,11.39079-9.91641,21.875-20.625,34-10.91641-12.125-20.625-22.60921-20.625-34a20.625,20.625,0,0,1,41.25,0Z"/><circle class="cls-3" cx="494.33769" cy="113.6399" r="8.1289"/><path class="cls-3" d="M329.11019,306.3452h-32.5821V278.8647a10.416,10.416,0,0,0-10.4043-10.4047h-.1679a10.4164,10.4164,0,0,0-10.4048,10.4047v27.4805H242.97V254.6421h4v47.7031h24.5811V278.8647a14.421,14.421,0,0,1,14.4048-14.4047h.1679a14.4209,14.4209,0,0,1,14.4043,14.4047v23.4805h24.5821V254.6421h4Z"/><path class="cls-3" d="M335.60529,254.8828l-50.0635-33.2851L236.5867,254.8716l-2.248-3.3086,50.06639-34.0293a2.00125,2.00125,0,0,1,2.2314-.0112l51.1836,34.0293Z"/><path class="cls-2" d="M139.0879,143.93921v5.7373a.95421.95421,0,0,1-.6936.9197l-6.28,1.78679a.93993.93993,0,0,0-.6559.66341,23.2301,23.2301,0,0,1-2.1487,5.1417.95981.95981,0,0,0-.015.9348l3.1965,5.7222a.9692.9692,0,0,1-.1583,1.146l-4.0636,4.0635a.969.969,0,0,1-1.1459.1583l-5.7523-3.2116a.92638.92638,0,0,0-.9273.0075,23.55877,23.55877,0,0,1-5.104,2.111.95656.95656,0,0,0-.6634.6483l-1.7943,6.3404a.968.968,0,0,1-.9273.7011h-5.7373a.95218.95218,0,0,1-.9197-.7011l-1.8019-6.3404a.95675.95675,0,0,0-.6634-.6483,23.34209,23.34209,0,0,1-5.0964-2.111.94061.94061,0,0,0-.9349-.0075l-5.7523,3.2116a.9692.9692,0,0,1-1.146-.1583l-4.056-4.0635a.95808.95808,0,0,1-.1583-1.146l3.189-5.7222a.94053.94053,0,0,0-.0075-.9348,23.2568,23.2568,0,0,1-2.1562-5.1417.94338.94338,0,0,0-.6484-.66341l-6.28-1.78679a.95218.95218,0,0,1-.7011-.9197v-5.7373a.95218.95218,0,0,1,.7011-.9197l6.2348-1.7717a.95.95,0,0,0,.6559-.671,23.22205,23.22205,0,0,1,2.1487-5.2246.95476.95476,0,0,0,.0075-.9424l-3.1438-5.6392a.95808.95808,0,0,1,.1583-1.146l4.056-4.056a.95962.95962,0,0,1,1.146-.1658L96.658,126.539a.9548.9548,0,0,0,.9423-.01509,23.13815,23.13815,0,0,1,5.2699-2.1863.96.96,0,0,0,.6709-.6634l1.7567-6.167a.95218.95218,0,0,1,.9197-.7011h5.7373a.968.968,0,0,1,.9273.7011l1.749,6.167a.96013.96013,0,0,0,.671.6634,22.99418,22.99418,0,0,1,5.2698,2.1863.955.955,0,0,0,.9424.01509l5.6091-3.13619a.95945.95945,0,0,1,1.1459.1658l4.0636,4.056a.94842.94842,0,0,1,.1583,1.13839c-.7463,1.342-2.4879,4.47071-3.1513,5.65441a.94043.94043,0,0,0,.0075.9348,22.87961,22.87961,0,0,1,2.1487,5.2246.95978.95978,0,0,0,.6634.671l6.2348,1.7717A.95421.95421,0,0,1,139.0879,143.93921Zm-16.9403,2.8724a13.0577,13.0577,0,1,0-13.0577,13.0577A13.06464,13.06464,0,0,0,122.1476,146.81161Z"/><path class="cls-4" d="M269.3377,123a2,2,0,0,0,0,4h33.5a2,2,0,0,0,0-4Z"/><path class="cls-4" d="M307.5877,439.5h-46a12.25,12.25,0,1,0,0,24.5h46a12.25,12.25,0,1,0,0-24.5Zm0,20.5h-46a8.25,8.25,0,1,1,0-16.5h46a8.25,8.25,0,1,1,0,16.5Z"/><path class="cls-4" d="M214.7127,124.68751A11.0625,11.0625,0,1,0,225.77519,113.625,11.07474,11.07474,0,0,0,214.7127,124.68751Zm18.125,0a7.0625,7.0625,0,1,1-7.06251-7.06251A7.07085,7.07085,0,0,1,232.8377,124.68751Z"/><path class="cls-4" d="M392.0877,125.25a25.25,25.25,0,1,0-25.25-25.25A25.2786,25.2786,0,0,0,392.0877,125.25Zm0-46.5a21.25,21.25,0,1,1-21.25,21.25A21.27374,21.27374,0,0,1,392.0877,78.75Z"/><polygon class="cls-4" points="390.088 110.667 394.088 110.667 394.088 102.084 402.671 102.084 402.671 98.084 394.088 98.084 394.088 89.5 390.088 89.5 390.088 98.084 381.505 98.084 381.505 102.084 390.088 102.084 390.088 110.667"/><polygon class="cls-4" points="452.204 300.512 448.204 300.512 448.204 314.715 425.479 314.715 425.479 291.99 447.638 291.99 447.638 287.99 421.479 287.99 421.479 318.715 452.204 318.715 452.204 300.512"/><polygon class="cls-4" points="433.057 299.789 430.229 302.617 436.259 308.648 458.947 289.83 456.394 286.751 436.511 303.242 433.057 299.789"/><rect class="cls-4" x="471.0047" y="319.3335" width="33.666" height="4"/><rect class="cls-4" x="471.0047" y="330.6665" width="20" height="4"/><path class="cls-4" d="M416.285,339.7295q2.1489,1.295,4.2675,2.5874l2.0821-3.415q-2.127-1.2972-4.2852-2.5982Z"/><path class="cls-4" d="M412.00079,337.1641l2.04691-3.4366q-2.14607-1.27875-4.31641-2.5527l-2.0254,3.4492Q409.86214,335.89045,412.00079,337.1641Z"/><path class="cls-4" d="M429.0477,347.55664l2.11709-3.39354q-2.10495-1.31325-4.2578-2.6416l-2.0996,3.4043Q426.95044,346.2478,429.0477,347.55664Z"/><path class="cls-4" d="M403.39429,332.1104l2.0039-3.462q-2.1693-1.25535-4.3476-2.4975l-1.9805,3.4746Q401.23519,330.8603,403.39429,332.1104Z"/><path class="cls-4" d="M437.491,352.88086l2.1504-3.37207q-2.08153-1.32787-4.2324-2.68359l-2.1328,3.38378Q435.41624,351.55811,437.491,352.88086Z"/><path class="cls-4" d="M485.35529,386.7056l2.5156-3.1104q-.96975-.7836-1.9609-1.5742l-2.4922,3.1289Q484.39774,385.93065,485.35529,386.7056Z"/><path class="cls-4" d="M505.99879,405.2695l2.8711-2.7841q-1.5981-1.65015-3.3369-3.3458l-2.793,2.8633Q504.43634,403.65755,505.99879,405.2695Z"/><path class="cls-4" d="M517.56229,419.3853l3.3692-2.1553c-.8174-1.2783-1.7403-2.6084-2.7422-3.9531l-3.2071,2.3906C515.92749,416.936,516.7957,418.1865,517.56229,419.3853Z"/><path class="cls-4" d="M521.44809,427.2681l3.8125-1.209a31.63137,31.63137,0,0,0-1.9043-4.6021l-3.5743,1.7979A27.5401,27.5401,0,0,1,521.44809,427.2681Z"/><path class="cls-4" d="M515.22829,409.5283c-.97559-1.1714-2.0254-2.3784-3.1191-3.5864l-2.9649,2.6846c1.0567,1.1674,2.06941,2.332,3.0098,3.4614Z"/><path class="cls-4" d="M492.48419,392.6445l2.6094-3.0312q-1.74915-1.5066-3.58989-3.0381l-2.55861,3.0742Q490.75859,391.159,492.48419,392.6445Z"/><path class="cls-4" d="M499.39139,398.8149l2.7246-2.9277q-1.686-1.5696-3.4824-3.1728l-2.6641,2.9843Q497.73319,397.27265,499.39139,398.8149Z"/><path class="cls-4" d="M526.2127,431.1768l-3.99611.1582a9.98449,9.98449,0,0,1-.125,2.0708l1.9707.3393-1.9707-.3384a7.97807,7.97807,0,0,1-.67089,2.1187c-4.73341,9.8315-31.168,9.7886-70.71-.1133a594.506,594.506,0,0,1-57.373-17.8766V326.3987c.46439.2588.92769.5132,1.39259.7737l1.956-3.4893q-1.6758-.93915-3.34859-1.8596V293.0656c50.74509-52.6456,83.97169-100.311,70.67869-116.027-10.1789-12.031-43.4111,1.9009-70.67869,16.485v-60.6901h-4V148.5h-208V118.75a18.27078,18.27078,0,0,1,18.25-18.25h159.917v-4H199.5877a22.27532,22.27532,0,0,0-22.25,22.25V306.4817c-39.6719-28.6272-59.6244-52.0274-54.439-62.7991a7.03977,7.03977,0,0,1,.5307-.9161l.0001.0001a9.62746,9.62746,0,0,1,3.0537-2.7407l-2.0557-3.4317a13.5759,13.5759,0,0,0-4.2978,3.9117l1.6499,1.1303-1.6504-1.1294a11.01178,11.01178,0,0,0-.835,1.4405c-7.0788,14.7057,17.8315,40.8487,58.0435,69.3573v50.382c-12.8655,13.16262-25.0856,27.001-33.1191,36.35342l3.0341,2.6065c7.3965-8.6103,18.3579-21.0401,30.085-33.2144V457.75a22.36776,22.36776,0,0,0,.1387,2.4564c-.6396.3603-1.2833.7263-1.9185,1.0802-37.5669,20.9287-64.2222,28.4253-71.2993,20.0586-4.2764-5.0552-1.6313-16.5932,7.4473-32.4892l-3.4737-1.9834c-10.2627,17.9692-12.6269,30.4365-7.0273,37.0556,2.8447,3.3638,7.3574,4.7949,12.9814,4.7945,16.3208-.001,41.9883-12.0581,63.3184-23.9414.2726-.1519.5499-.3106.8232-.4636A22.28951,22.28951,0,0,0,199.5877,480h171.5a22.27532,22.27532,0,0,0,22.25-22.25V421.7897c20.17809,7.2752,39.20429,13.1966,56.40139,17.5028,16.3261,4.0879,34.7959,7.6577,49.5078,7.6577,12.54881,0,22.3642-2.5981,25.7773-9.688a11.96287,11.96287,0,0,0,1.0086-3.1778l.0002.0001A13.914,13.914,0,0,0,526.2127,431.1768Zm-136.875-15.1034c-27.31011-10.0695-56.60721-22.5487-86.26271-36.8244-.7695-.3704-1.5281-.7411-2.2935-1.1116q6.4872-5.33535,12.981-10.8259c26.7966-22.6662,52.8127-46.8091,75.57521-70.1218Zm71.624-236.4518c9.64819,11.4063-15.28031,53.0246-67.624,107.8802V198.0691C429.63259,178.422,454.25959,171.6939,460.9617,179.6216ZM181.3377,152.5h208V291.666c-21.74761,22.473-47.95591,47.0442-78.15921,72.59181q-7.18019,6.07349-14.3576,11.95519c-47.1221-23.03765-86.2693-46.2235-115.48319-66.8776ZM293.41809,378.9948C273.5427,395.1697,253.822,410.1535,234.886,423.5H181.3377V314.1152C212.62049,335.8731,252.41249,358.82123,293.41809,378.9948ZM181.3377,457.75V427.5h47.824c-16.76851,11.6223-32.8549,21.896-47.8113,30.5007C181.3492,457.9164,181.3377,457.8347,181.3377,457.75ZM371.0877,476h-171.5a18.26592,18.26592,0,0,1-17.6574-13.7187c16.837-9.6148,35.1256-21.3641,54.2186-34.7813H389.3377v30.25A18.27046,18.27046,0,0,1,371.0877,476Zm18.25-52.5H241.79859c18.051-12.8884,36.7524-27.2064,55.57211-42.5699q1.98374.9654,3.96989,1.9234c30.2623,14.5678,60.1697,27.281,87.99711,37.4836Z"/><path class="cls-4" d="M175.0213,235.3965q-2.52689-.4542-4.9707-.8423l-.627,3.9502q2.40316.3816,4.8897.8286Z"/><path class="cls-4" d="M159.6126,237.1899c1.5884.17,3.2407.3702,4.9111.5948l.5332-3.9639c-1.7055-.2295-3.394-.4341-5.0175-.6084Z"/><path class="cls-4" d="M149.7825,236.4629c1.5801.0576,3.2339.1509,4.9151.2768l.2998-3.9882c-1.7325-.1304-3.438-.2266-5.0694-.2857Z"/><path class="cls-4" d="M140.0125,236.604c1.5317-.1162,3.1694-.1851,4.8677-.2056l-.0479-4c-1.7832.0215-3.5063.0948-5.1225.2173Z"/><path class="cls-4" d="M130.6268,238.2354a34.70121,34.70121,0,0,1,4.5991-1.0669l-.6572-3.9454a38.72278,38.72278,0,0,0-5.1333,1.1939Z"/><path class="cls-4" d="M461.49879,387.8237a20.7451,20.7451,0,1,0-20.74509-20.7451A20.76886,20.76886,0,0,0,461.49879,387.8237Zm0-37.4902a16.7451,16.7451,0,1,1-16.74509,16.7451A16.764,16.764,0,0,1,461.49879,350.3335Z"/><circle class="cls-4" cx="461.49919" cy="367.07841" r="8.12889"/><path class="cls-4" d="M127.3753,443.2451A20.7451,20.7451,0,1,0,106.6302,422.5,20.76845,20.76845,0,0,0,127.3753,443.2451Zm0-37.4902A16.7451,16.7451,0,1,1,110.6302,422.5,16.76391,16.76391,0,0,1,127.3753,405.7549Z"/><path class="cls-4" d="M51.2947,370.0825l-3.7832-1.2998a20.67055,20.67055,0,0,0-1.0781,5.4116l3.9922.252A16.66849,16.66849,0,0,1,51.2947,370.0825Z"/><path class="cls-4" d="M60.9998,395.313a20.73255,20.73255,0,0,0,5.4404.9033l.126-3.998a16.7197,16.7197,0,0,1-4.3906-.7286Z"/><path class="cls-4" d="M70.9964,391.771l.9297,3.8906a20.66049,20.66049,0,0,0,5.1479-1.9897l-1.9287-3.5049A16.62731,16.62731,0,0,1,70.9964,391.771Z"/><path class="cls-4" d="M50.7327,378.8911l-3.9189.8018a20.58572,20.58572,0,0,0,1.8227,5.2104l3.5645-1.8154A16.56031,16.56031,0,0,1,50.7327,378.8911Z"/><path class="cls-4" d="M74.4603,356.15283a20.64381,20.64381,0,0,0-5.3765-1.25244l-.3789,3.98242a16.61986,16.61986,0,0,1,4.3345,1.00928Z"/><path class="cls-4" d="M63.576,355.106a20.59254,20.59254,0,0,0-5.2661,1.65429l1.7002,3.6211a16.58439,16.58439,0,0,1,4.2422-1.333Z"/><path class="cls-4" d="M54.7313,386.7505l-2.96,2.6904a20.78224,20.78224,0,0,0,4.2168,3.5537l2.1494-3.373A16.82622,16.82622,0,0,1,54.7313,386.7505Z"/><path class="cls-4" d="M56.2689,362.79346l-2.5948-3.04395a20.8197,20.8197,0,0,0-3.6865,4.10156l3.3037,2.25583A16.83452,16.83452,0,0,1,56.2689,362.79346Z"/><path class="cls-4" d="M78.7259,387.521l2.7832,2.873a20.7928,20.7928,0,0,0,3.418-4.3286l-3.4405-2.04A16.81177,16.81177,0,0,1,78.7259,387.521Z"/><path class="cls-4" d="M83.6517,373.1968l3.9619-.5498a20.58193,20.58193,0,0,0-1.4839-5.3159l-3.6738,1.582A16.62552,16.62552,0,0,1,83.6517,373.1968Z"/><path class="cls-4" d="M83.2918,362.60156a20.8204,20.8204,0,0,0-3.9814-3.81494L76.95,362.01611a16.79706,16.79706,0,0,1,3.2158,3.08159Z"/><path class="cls-4" d="M83.223,379.9297l3.8593,1.0527a20.769,20.769,0,0,0,.729-5.4658h-4A16.75832,16.75832,0,0,1,83.223,379.9297Z"/><path class="cls-4" d="M57.2464,275.9795a14.2705,14.2705,0,1,0,14.2705-14.27A14.28683,14.28683,0,0,0,57.2464,275.9795Zm14.2705-10.27a10.27025,10.27025,0,1,1-10.2705,10.27A10.2818,10.2818,0,0,1,71.5169,265.7095Z"/><circle class="cls-4" cx="86.02187" cy="245.16328" r="7.14915"/><path class="cls-4" d="M107.93,200.2383a54.89805,54.89805,0,0,0,33.7519-10.563c1.4136.5093,4.8233,4.6787,6.8941,7.2109,1.6855,2.0606,3.4282,4.1919,5.1074,5.9234a5.06639,5.06639,0,0,0,8.7168-3.5601c-.04-4.2837-.3896-9.7153-.7285-14.9687-.5542-8.606-1.1831-18.3604-.2197-21.0953a55.50973,55.50973,0,1,0-53.522,37.0528ZM72.6717,108.334a51.09176,51.09176,0,0,1,38.103-15.05709c27.1138.8657,49.4575,23.6503,49.8081,50.791a51.40682,51.40682,0,0,1-2.9038,17.7895c-1.1514,3.2691-.7676,10.7495.001,22.6807.3349,5.1992.6816,10.5752.7202,14.7485a1.02079,1.02079,0,0,1-.6533.9932,1.04527,1.04527,0,0,1-1.1919-.2549c-1.5615-1.6103-3.25-3.6748-4.8828-5.6709-3.9204-4.7939-7.1743-8.7729-10.107-8.7729a3.36165,3.36165,0,0,0-2.0283.708A51.50194,51.50194,0,0,1,72.6717,108.334Z"/><rect class="cls-4" x="473.6707" y="145.75" width="5" height="4"/><rect class="cls-4" x="483.6707" y="145.75" width="5" height="4"/><rect class="cls-4" x="443.6707" y="145.75" width="5" height="4"/><rect class="cls-4" x="463.6707" y="145.75" width="5" height="4"/><rect class="cls-4" x="433.6707" y="145.75" width="5" height="4"/><rect class="cls-4" x="453.6707" y="145.75" width="5" height="4"/><path class="cls-4" d="M404.66089,147.5a13.50168,13.50168,0,0,0,25.1163,6.88281l-3.43949-2.042a9.50012,9.50012,0,1,1,.15039-9.4179l3.5039-1.9307A13.502,13.502,0,0,0,404.66089,147.5Z"/><path class="cls-4" d="M79.2381,152.52l5.7153,1.62551a25.24834,25.24834,0,0,0,1.8926,4.5151l-2.9014,5.2061a2.9679,2.9679,0,0,0,.4869,3.5376l4.0561,4.0635a2.99481,2.99481,0,0,0,3.5366.4912l5.2442-2.9278a25.38883,25.38883,0,0,0,4.4648,1.8506l1.6353,5.7535a2.9589,2.9589,0,0,0,2.8491,2.1743h5.7373a2.98733,2.98733,0,0,0,2.8516-2.1568l1.6337-5.7715a25.66093,25.66093,0,0,0,4.4654-1.8491l5.2671,2.9405a2.98875,2.98875,0,0,0,3.5107-.504l4.0635-4.0634a2.99428,2.99428,0,0,0,.4902-3.5352l-2.9067-5.2036a25.27652,25.27652,0,0,0,1.8877-4.5186l5.7099-1.6245a2.95962,2.95962,0,0,0,2.1597-2.8471V143.939a2.95554,2.95554,0,0,0-2.147-2.84329l-5.6777-1.6133a24.9464,24.9464,0,0,0-1.8916-4.6001c.7871-1.4082,2.2104-3.9648,2.8555-5.126a2.95357,2.95357,0,0,0-.481-3.54731l-4.0444-4.03609a2.98108,2.98108,0,0,0-3.5542-.5157l-5.0928,2.8477a25.05068,25.05068,0,0,0-4.6572-1.9331l-1.5948-5.6226a2.9829,2.9829,0,0,0-2.8476-2.143h-5.7373a2.95244,2.95244,0,0,0-2.8433,2.1533l-1.5986,5.6128a25.11519,25.11519,0,0,0-4.6567,1.9331l-5.1202-2.8628a2.96546,2.96546,0,0,0-3.5097.5122l-4.0562,4.0556a2.96644,2.96644,0,0,0-.4912,3.5337l2.8628,5.1353a25.23956,25.23956,0,0,0-1.896,4.6055l-5.6479,1.6049a2.9583,2.9583,0,0,0-2.1763,2.84919v5.73731A2.95259,2.95259,0,0,0,79.2381,152.52Zm1.8462-7.79049,5.4756-1.5557a2.93855,2.93855,0,0,0,2.0454-2.0693,21.23277,21.23277,0,0,1,1.9624-4.771,2.93256,2.93256,0,0,0,.0117-2.89751l-2.7617-4.95409,2.9472-2.9467,4.9454,2.7651a2.92526,2.92526,0,0,0,2.8789-.0381,21.13287,21.13287,0,0,1,4.8188-1.9985,2.97382,2.97382,0,0,0,2.0567-2.0415l1.5424-5.416h4.1646l1.5327,5.4047a2.9786,2.9786,0,0,0,2.0669,2.0547,20.97624,20.97624,0,0,1,4.7847,1.981,2.95141,2.95141,0,0,0,2.9345.0381l4.9175-2.75,2.9517,2.94629c-.8467,1.52141-2.1983,3.94821-2.7627,4.955a2.9283,2.9283,0,0,0,.0093,2.89991,20.94635,20.94635,0,0,1,1.9638,4.7803,2.977,2.977,0,0,0,2.043,2.0557l5.4746,1.5556v4.1612L131.574,150.457a2.929,2.929,0,0,0-2.04,2.044,21.2786,21.2786,0,0,1-1.9653,4.7036,2.981,2.981,0,0,0-.0201,2.8935l2.813,5.0357-2.9497,2.9497-5.0371-2.812a2.91422,2.91422,0,0,0-2.9038-.0103,21.62142,21.62142,0,0,1-4.6802,1.9351,2.93855,2.93855,0,0,0-2.0385,2.0273l-1.5811,5.586h-4.1636l-1.5884-5.5904a2.941,2.941,0,0,0-2.0473-2.0254,21.39263,21.39263,0,0,1-4.6524-1.9262,2.92,2.92,0,0,0-2.8935-.0122l-5.065,2.8281-2.9438-2.9492,2.7925-5.0113a2.956,2.956,0,0,0-.001-2.92279,21.22349,21.22349,0,0,1-1.9683-4.6904,2.934,2.934,0,0,0-2.0273-2.05081l-5.5288-1.57279Z"/><path class="cls-4" d="M109.0897,161.8691a15.06125,15.06125,0,1,0-15.0577-15.0576A15.07481,15.07481,0,0,0,109.0897,161.8691Zm0-26.1225a11.06125,11.06125,0,1,1-11.0577,11.0649A11.074,11.074,0,0,1,109.0897,135.74661Z"/><rect class="cls-5" x="103.7874" y="327.7109" width="28.1616" height="4"/><path class="cls-5" d="M110.972,347.76318h-4V323.2017h-3.1846v-4h3.1846V295.6279h22.4477c6.8111,0,12.3521,6.1885,12.3521,13.795s-5.541,13.7949-12.3521,13.7949l-18.4477-.0161Zm0-28.56148h18.9297c4.3823-.2935,7.8701-4.5674,7.8701-9.7788,0-5.4009-3.7466-9.795-8.3521-9.795H110.972Z"/></svg>