<svg id="Layer_1" data-name="Layer 1" xmlns="http://www.w3.org/2000/svg" viewBox="0 0 566.93002 566.93"><defs><style>.cls-1{fill:#c7811d;}.cls-2{fill:#52783d;}.cls-3{fill:#fff;}.cls-4{fill:#231f20;}</style></defs><title>персональный менеджер</title><path class="cls-1" d="M274.42542,113.02421a90.25,90.25,0,0,0-90.25,90.25v24.9394a12.31031,12.31031,0,0,1,5.09778-3.7118l7.5996-2.9537a12.31868,12.31868,0,0,1,8.8873-.0165c.0191-5.7068,4.1842-6.1366,4.1842-6.1366s13.6666,1,22.6666-.8333,21.5-19,21.5-19c.25,3.75,16.5,17.25,24,18.9419s43,1.8081,43,1.8081,15.4854-.9989,21.9249,5.2896c.0275-.0109.0534-.0254.0809-.0362a12.48231,12.48231,0,0,1,9.068-.017l7.48,2.9537a12.31688,12.31688,0,0,1,5.0107,3.5982V203.2742A90.24993,90.24993,0,0,0,274.42542,113.02421Z"/><path class="cls-1" d="M212.69319,262.4797l-7.5229,2.9239a12.37906,12.37906,0,0,1-16.02288-7.0538l-4.972-12.7925V365.6205l11-4.6205c6.91688-2.89209,11.80978-4.77991,11.80978-4.77991l34.4927-14.37979v-32.919l.0221-.0002c.1408.1647.2828.3246.4239.4877-15.8768-18.3479-29.2184-46.8972-29.2184-46.8972Z"/><path class="cls-1" d="M359.79052,258.3498a12.379,12.379,0,0,1-16.0228,7.0538l-7.5996-2.9537a12.357,12.357,0,0,1-2.7957-1.541c-.0168.0308-.0315.0602-.0483.0909,0,0-13.8267,29.4724-29.9751,48.2498.2456-.2857.4916-.5697.7361-.8601V343.257l35.7805,12.97939,24.8098,9.38411V245.7814Z"/><path class="cls-1" d="M290.54219,320.9831q-.457.29085-.9134.5605Q290.08509,321.2745,290.54219,320.9831Z"/><path class="cls-1" d="M255.62189,321.573q-.463-.27015-.92648-.5631Q255.15892,321.302,255.62189,321.573Z"/><path class="cls-1" d="M292.80512,319.4191a56.3827,56.3827,0,0,0,6.2121-5.466A56.39185,56.39185,0,0,1,292.80512,319.4191Z"/><path class="cls-1" d="M289.47149,321.6349c-.3118.1814-.6235.3566-.9346.522C288.84809,321.9915,289.15959,321.8163,289.47149,321.6349Z"/><path class="cls-1" d="M254.54049,320.9121q-.45461-.2898-.9094-.6Q254.08589,320.6223,254.54049,320.9121Z"/><path class="cls-1" d="M256.70929,322.1772c-.3218-.1693-.64388-.3489-.9661-.5348C256.06549,321.8284,256.38749,322.0078,256.70929,322.1772Z"/><path class="cls-1" d="M285.36089,323.5617h-25.5a23.03835,23.03835,0,0,1-3.11948-1.368,23.07979,23.07979,0,0,0,3.11948,1.375h25.5a22.60785,22.60785,0,0,0,3.0804-1.3623A22.56017,22.56017,0,0,1,285.36089,323.5617Z"/><path class="cls-1" d="M246.20249,314.0272c-.2932-.293-.5855-.5927-.8776-.8943C245.61709,313.4346,245.90929,313.7341,246.20249,314.0272Z"/><path class="cls-1" d="M253.46289,320.1965q-.4539-.3132-.908-.6447Q253.00894,319.88435,253.46289,320.1965Z"/><path class="cls-1" d="M252.40059,319.4373c-.31018-.2294-.6203-.4637-.93018-.7059C251.78029,318.9738,252.09042,319.2078,252.40059,319.4373Z"/><path class="cls-1" d="M251.37559,318.6562a58.53637,58.53637,0,0,1-5.158-4.6141A58.58263,58.58263,0,0,0,251.37559,318.6562Z"/><path class="cls-1" d="M245.11679,312.9188c-.2668-.2776-.5329-.5605-.7988-.845C244.58389,312.3584,244.85,312.6411,245.11679,312.9188Z"/><path class="cls-1" d="M302.173,310.5932q-.43455.4872-.8708.9628Q301.73857,311.0799,302.173,310.5932Z"/><path class="cls-1" d="M303.25132,309.3638q-.44655.51765-.8955,1.0231Q302.80462,309.8805,303.25132,309.3638Z"/><path class="cls-1" d="M291.629,320.2631q-.459.3165-.9173.6115Q291.17009,320.579,291.629,320.2631Z"/><path class="cls-1" d="M242.22829,309.7592q.3708.42465.7432.8415Q242.599,310.18385,242.22829,309.7592Z"/><path class="cls-1" d="M243.28069,310.9443q.37909.41985.7593.8318Q243.65944,311.365,243.28069,310.9443Z"/><path class="cls-1" d="M301.10392,311.7717q-.4365.47325-.8747.9345Q300.66752,312.2451,301.10392,311.7717Z"/><path class="cls-1" d="M292.72692,319.4781c-.3159.2343-.6317.4599-.9474.6799C292.09522,319.9379,292.41092,319.7125,292.72692,319.4781Z"/><path class="cls-1" d="M300.04252,312.9013q-.4512.4713-.9036.93Q299.59162,313.37365,300.04252,312.9013Z"/><rect class="cls-2" x="51.67542" y="271.1615" width="105.33328" height="67.2766"/><circle class="cls-2" cx="330.62334" cy="91.32418" r="6.29915"/><line class="cls-3" x1="414.94622" y1="126.53731" x2="399.88882" y2="141.59481"/><line class="cls-3" x1="399.88882" y1="126.53731" x2="414.94622" y2="141.59481"/><rect class="cls-1" x="148.8483" y="124.53711" width="10.7753" height="4"/><rect class="cls-1" x="178.232" y="124.53711" width="10.77642" height="4"/><rect class="cls-1" x="166.9283" y="135.84131" width="4" height="10.7764"/><rect class="cls-1" x="166.9283" y="106.457" width="4" height="10.77591"/><path class="cls-1" d="M134.815,230.2344l-2.3212-2.5772c-10.90238-12.1025-20.31838-22.5547-20.31838-34.4277a22.625,22.625,0,0,1,45.25,0c0,11.4878-8.92972,21.5625-19.27052,33.228Zm-.01458-55.6299a18.64622,18.64622,0,0,0-18.625,18.625c0,10.1103,8.55178,19.8252,18.61228,30.9976l.374-.4229c9.7998-11.0562,18.26372-20.6045,18.26372-30.5747A18.64625,18.64625,0,0,0,134.80042,174.6045Z"/><path class="cls-1" d="M134.80042,203.6455a10.1289,10.1289,0,1,1,10.12888-10.1289A10.14051,10.14051,0,0,1,134.80042,203.6455Zm0-16.2578a6.1289,6.1289,0,1,0,6.12888,6.1289A6.13564,6.13564,0,0,0,134.80042,187.3877Z"/><path class="cls-1" d="M127.80042,230h-5v-4h5Zm-10,0h-5v-4h5Zm-10,0h-5v-4h5Zm-10,0h-5v-4h5Zm-10,0h-5v-4h5Zm-10,0h-5v-4h5Z"/><circle class="cls-2" cx="224.25332" cy="79.82821" r="20.17182"/><polygon class="cls-3" points="234.482 79.292 219.139 70.433 219.139 88.15 234.482 79.292"/><path class="cls-4" d="M159.00842,269.1616H49.67542V340.438h109.333Zm-4,67.2764H53.67542V273.1616h101.333Z"/><rect class="cls-4" x="134.67526" y="299.03675" width="4.00027" height="35.8552" transform="translate(-173.37199 165.25021) rotate(-40.60055)"/><polygon class="cls-4" points="142.797 281.156 140.553 277.844 104.342 302.384 68.13 277.844 65.886 281.156 104.342 307.216 142.797 281.156"/><rect class="cls-4" x="54.08136" y="314.96394" width="35.85502" height="4.00031" transform="translate(-215.50562 165.34967) rotate(-49.39669)"/><rect class="cls-4" x="83.17542" y="343.2788" width="4" height="28.2212"/><rect class="cls-4" x="123.00842" y="343.2788" width="4" height="28.2212"/><rect class="cls-4" x="102.50842" y="343.2788" width="4" height="41.3877"/><path class="cls-4" d="M479.89222,64.46441A72.73916,72.73916,0,0,0,356.69,115.14791a72.895,72.895,0,0,0,39.6397,66.271c-.7617.7525-1.8506,1.7212-2.7959,2.5621-4.3232,3.8476-9.7041,8.6357-10.2979,13.3378a4.03337,4.03337,0,0,0,1.0166,3.2012,4.21269,4.21269,0,0,0,3.1309,1.397c.0303,0,.0606-.0005.0899-.001,10.2109-.2163,18.9453-7.0181,24.164-11.0825a30.98649,30.98649,0,0,1,3.9277-2.8052,73.22049,73.22049,0,0,0,13.4053,1.3042c.124.0005.2451.001.3692.001a72.66665,72.66665,0,0,0,50.5527-124.8691Zm-2.2275,100.7988a68.14956,68.14956,0,0,1-48.3262,20.0703c-.1152,0-.2324-.0005-.3486-.001a69.18134,69.18134,0,0,1-12.9249-1.2817c-1.7841-.3472-3.4863.9804-6.8857,3.6269-5.1396,4.0025-12.9062,10.0513-21.791,10.2393h-.0039a.23034.23034,0,0,1-.1797-.0967c.4053-3.2134,5.5703-7.8096,8.9883-10.8511,3.5703-3.1772,5.2002-4.6269,4.9394-6.4702a2.41079,2.41079,0,0,0-1.3838-1.8515,68.67863,68.67863,0,0,1,27.2911-130.6099c.7773-.0254,1.5498-.0381,2.3232-.0381a68.53374,68.53374,0,0,1,48.3018,117.2637Z"/><rect class="cls-4" x="412.09532" y="255.5479" width="8.1817" height="4"/><rect class="cls-4" x="434.40682" y="255.5479" width="8.1827" height="4"/><rect class="cls-4" x="425.34242" y="264.6123" width="4" height="8.1826"/><rect class="cls-4" x="425.34242" y="242.3008" width="4" height="8.1821"/><rect class="cls-4" x="389.84242" y="83.75" width="76.083" height="4"/><rect class="cls-4" x="389.84242" y="94.25" width="76.083" height="4"/><rect class="cls-4" x="389.84242" y="103.5" width="76.083" height="4"/><path class="cls-4" d="M389.842,151.48561h34.5v-34.5h-34.5Zm4-30.5h26.5v26.5h-26.5Z"/><polygon class="cls-4" points="461.883 147.188 433.446 147.188 433.446 121.048 460.769 121.048 460.769 117.048 429.446 117.048 429.446 151.188 465.883 151.188 465.883 131.819 461.883 131.819 461.883 147.188"/><polygon class="cls-4" points="413.532 125.123 407.418 131.238 401.303 125.123 398.475 127.951 404.59 134.066 398.475 140.181 401.303 143.009 407.418 136.894 413.532 143.009 416.36 140.181 410.246 134.066 416.36 127.951 413.532 125.123"/><polygon class="cls-4" points="447.236 135.711 442.769 131.244 439.941 134.072 446.984 141.116 474.222 118.525 471.67 115.446 447.236 135.711"/><rect class="cls-4" x="322.66372" y="419.5" width="5.0029" height="4"/><rect class="cls-4" x="342.67052" y="419.5" width="5" height="4"/><rect class="cls-4" x="382.67442" y="419.5" width="5.001" height="4"/><rect class="cls-4" x="372.67252" y="419.5" width="5.0009" height="4"/><rect class="cls-4" x="362.67152" y="419.5" width="5.001" height="4"/><rect class="cls-4" x="352.67052" y="419.5" width="5.001" height="4"/><rect class="cls-4" x="332.66952" y="419.5" width="5.001" height="4"/><path class="cls-4" d="M462.55852,353.36328l4.6511-4.41894a19.99877,19.99877,0,0,0,.7265-28.27494l-22.4726-23.6557a25.69673,25.69673,0,0,0-36.2871-.9312l-6.4649,6.1411a26.08474,26.08474,0,0,0-.9453,36.8755l22.1856,23.354a19.86776,19.86776,0,0,0,13.9873,6.21827c.1758.0049.3506.0068.5263.0068a19.86565,19.86565,0,0,0,13.7618-5.49949l7.3466-6.97986c2.4707,1.64173,8.3531,7.2461,11.4668,24.49015,4.0694,22.539-16.5244,44.1967-37.9677,53.1313a46.59512,46.59512,0,0,0-6.0254,3.0777c-1.2542-9.1594-2.4536-17.2158-3.4063-22.2686-1.8672-9.9004-8.5752-24.415-29.9306-37.3403-7.7413-4.6861-25.6094-12.39994-53.1084-22.92728l-1.9717-.75489-.0114.03534L306.107,341.8481V309.0939c.1825-.2193.3638-.4311.5469-.6544a181.49708,181.49708,0,0,0,13.3443-18.9712,56.17773,56.17773,0,0,0,11.4936-2.0767c9.8347-3.3765,14.1202-14.7213,15.4587-19.2052q.6435.0582,1.2845.0587a14.40576,14.40576,0,0,0,13.4199-9.1709l6.9277-17.8247a14.39368,14.39368,0,0,0-8.1836-18.6079l-6.2138-2.4539V194.355l-.0205-.2876A80.80556,80.80556,0,0,0,194.482,192.6973l-.0263.1616.053,27.4623-5.96028,2.3165a14.39607,14.39607,0,0,0-8.19332,18.6118l6.9277,17.8247a14.37878,14.37878,0,0,0,18.6123,8.1939l5.8717-2.2824c3.0659,6.3106,14.3183,28.5929,27.7328,44.5284v30.9864l-33.2507,13.86156c-18.9708,7.27472-43.5659,17.151-53.1087,22.927-21.3554,12.9253-28.0634,27.4399-29.9306,37.3403-3.6563,19.3945-10.9483,83.0029-11.0215,83.6435l3.9746.4542c.0732-.6387,7.34772-64.1036,10.9785-83.3565,1.7158-9.0996,7.9785-22.499,28.0694-34.6597,8.9834-5.437,32.0566-14.7553,50.5849-21.88961,4.58792,12.99321,30.71292,83.355,67.1494,109.55271l1.168.8394,1.168-.8394a102.32933,102.32933,0,0,0,19.04752-18.499h43.222a11.1875,11.1875,0,0,1,0,22.375h-27.042a15.1875,15.1875,0,0,0,0,30.375h63.9434c.0693.0034.165.0063.2861.0063,1.8857,0,9.7041-.7529,14.3047-12.7485,3.7298-9.7234,17.8332-33.2551,34.899-46.0854,3.3051,24.9074,6.6967,54.4946,6.7465,54.9297l3.9746-.4542c-.0513-.4478-3.6305-31.6689-7.029-57.0449a45.40734,45.40734,0,0,1,6.9782-3.7153c23.4571-9.7734,44.8535-32.6748,40.3643-57.5347C471.88392,362.85,466.13,356.0285,462.55852,353.36328Zm-13.0872,6.915a15.99937,15.99937,0,0,1-22.6191-.58008l-22.1856-23.354a22.08112,22.08112,0,0,1,.8008-31.2202l6.4648-6.1411a21.69051,21.69051,0,0,1,30.6309.7857l22.4727,23.6557a15.9989,15.9989,0,0,1-.5811,22.61965Zm-145.9111-54.375c-6.8457,8.3506-13.06253,13.5957-18.48253,15.5967h-24.8046c-4.8565-1.791-10.3291-6.124-16.2715-12.8843-13.4801-15.3378-25.3655-38.7096-28.5677-45.2472a14.38966,14.38966,0,0,0,6.2542-17.6664l-6.92768-17.8247a14.26308,14.26308,0,0,0-6.852-7.5728c.35458-2.3257,1.71438-2.8498,2.19178-2.9599,1.9346.1304,14.3613.8706,22.9746-.8847,7.5352-1.5352,16.832-12.293,20.7969-17.2793,4.6826,6.3364,17.833,15.8515,23.8633,17.2124,7.6269,1.7202,41.97562,1.852,43.43362,1.8569l.1357-.0039c3.5032-.2305,12.6104.0004,18.0982,3.0597a14.33541,14.33541,0,0,0-5.2242,6.5716l-6.9287,17.8247a14.39335,14.39335,0,0,0,3.6616,15.7692c-1.7244,3.5347-6.6756,13.405-13.2733,24.2081-11.8803,1.0228-27.05113.925-32.26363.8526a10.34284,10.34284,0,0,0-10.2428-9.032h-6.99608a10.33325,10.33325,0,0,0,0,20.6665h6.99608a10.34305,10.34305,0,0,0,9.9645-7.6359c1.4949.0234,3.87543.0509,6.80893.0509,6.2818,0,15.086-.1272,23.1019-.6903A169.37446,169.37446,0,0,1,303.56022,305.9033Zm-22.0948-18.0698a6.34081,6.34081,0,0,1-6.33392,6.333h-6.99608a6.33325,6.33325,0,0,1,0-12.6665h6.99608A6.34123,6.34123,0,0,1,281.46542,287.8335Zm48.7276-4.2251a41.27249,41.27249,0,0,1-7.5701,1.5423c5.5875-9.3831,9.8096-17.7083,11.6141-21.3772.3913.1948.7907.3791,1.206.5405l7.5962,2.9527C341.79642,271.2731,338.05532,280.9089,330.193,283.6084Zm34.6611-43.8081-6.9277,17.8247a10.39124,10.39124,0,0,1-13.4346,5.9146l-7.5996-2.9542a10.391,10.391,0,0,1-5.9141-13.434l6.9287-17.8252a10.41573,10.41573,0,0,1,5.9356-5.8975,10.5831,10.5831,0,0,1,3.8428-.7251,10.4001,10.4001,0,0,1,2.5749.3326c.0932,2.8726.0215,9.9586-2.4546,16.0668a9.78837,9.78837,0,1,0,3.7907,1.2998,44.59864,44.59864,0,0,0,2.6959-15.872l4.6479,1.8354A10.391,10.391,0,0,1,364.85412,239.8003Zm-12.4726,8.9853a5.76225,5.76225,0,1,1-5.7627-5.7622A5.769,5.769,0,0,1,352.38152,248.7856ZM274.21742,129c37.8301,0,70.4629,28.1499,75.9678,65.5005V218.928a14.475,14.475,0,0,0-6.6077.3734c-7.1877-5.7994-21.1841-5.1276-22.4587-5.0514-1.6973-.0073-35.44733-.1675-42.503-1.7593-7.3955-1.6679-21.8125-14.4018-22.44038-17.104V174.2739l-4-.0288c-.00982.6773-.22272,15.7769-.03322,20.6416-3.7109,4.9619-13.3672,16.3296-19.8662,17.6533-8.6201,1.7574-21.9863.8086-22.1221.7989l-.1748-.0127-.1738.0175a6.88947,6.88947,0,0,0-5.7061,5.6355,14.1989,14.1989,0,0,0-5.5931.0242l-.0504-25.8232A76.45341,76.45341,0,0,1,274.21742,129ZM201.91469,243.1865a5.7622,5.7622,0,1,1-5.7627,5.7622A5.76874,5.76874,0,0,1,201.91469,243.1865Zm2.5312,20.3531a10.39324,10.39324,0,0,1-13.4346-5.9146l-6.9277-17.8247a10.39114,10.39114,0,0,1,5.9141-13.4341l4.3668-1.6972a43.46494,43.46494,0,0,0,2.574,15.8962,9.91854,9.91854,0,1,0,3.78992-1.2992c-2.47842-6.1499-2.44352-13.3035-2.30972-16.1302a10.37136,10.37136,0,0,1,12.6131,6.1909l6.9278,17.8247a10.391,10.391,0,0,1-5.9141,13.434Zm69.667,200.728c-34.58548-25.9871-60.3486-95.0419-64.593-106.93514l33.9797-14.166V313.9904c5.6013,5.8715,10.8955,9.7013,15.7676,11.3983l.3203.1113h26.1758l.3203-.1113c4.91783-1.7128,10.29193-5.6649,16.02343-11.7603v31.0235l35.2642,12.792c-2.4907,7.29669-12.4727,35.30129-27.596,62.05609h-30.8498a15.1875,15.1875,0,1,0,0,30.375h10.14477A95.49589,95.49589,0,0,1,274.11289,464.2676ZM307.46752,423.5a198.57937,198.57937,0,0,1-15.1116,22.375h-13.4305a11.1875,11.1875,0,1,1,0-22.375Zm77.8407,64.9502c-4.0107,10.4541-10.375,10.2012-10.623,10.1826l-64.1768-.0078a11.1875,11.1875,0,0,1,0-22.375h27.042a15.1875,15.1875,0,0,0,0-30.375H297.483a212.0875,212.0875,0,0,0,14.7342-22.375h7.2912v-4h-5.0256a391.71714,391.71714,0,0,0,26.6447-60.65283c25.8174,9.92573,43.2618,17.47513,50.5127,21.86373,20.0909,12.1607,26.3536,25.5601,28.0694,34.6597,1.0075,5.3424,2.2956,14.0911,3.6325,23.955C404.75062,452.4661,389.295,478.0567,385.30822,488.4502Z"/><path class="cls-4" d="M442.57292,335.1091l11.4492-10.8767a2.00046,2.00046,0,0,0-2.7559-2.9004l-12.8967,12.2519-.0027.002-.0022.0026-12.8962,12.25134a2.00042,2.00042,0,0,0,2.7558,2.90039l11.4485-10.87593,12.0525,12.687a2.00011,2.00011,0,1,0,2.9004-2.75488Z"/><path class="cls-4" d="M86.7193,400.4863a14.385,14.385,0,1,0,14.3848,14.3848A14.40127,14.40127,0,0,0,86.7193,400.4863Zm0,24.77a10.385,10.385,0,1,1,10.3848-10.3852A10.39637,10.39637,0,0,1,86.7193,425.2563Z"/><path class="cls-4" d="M215.55042,431.5h-26v4h26a6.382,6.382,0,0,1,6.375,6.375v32a6.382,6.382,0,0,1-6.375,6.375h-62.75a6.382,6.382,0,0,1-6.375-6.375v-32a6.382,6.382,0,0,1,6.375-6.375H178.2389v-4H152.80042a10.38686,10.38686,0,0,0-10.375,10.375v32a10.38686,10.38686,0,0,0,10.375,10.375h62.75a10.38689,10.38689,0,0,0,10.375-10.375v-32A10.38689,10.38689,0,0,0,215.55042,431.5Z"/><rect class="cls-4" x="181.92542" y="424" width="4" height="17.25"/></svg>