<svg id="Layer_1" data-name="Layer 1" xmlns="http://www.w3.org/2000/svg" viewBox="0 0 566.93002 566.93"><defs><style>.cls-1{fill:#c7811d;}.cls-2{fill:#52783d;}.cls-3{fill:#fff;}.cls-4{fill:#231f20;}</style></defs><title>технадзор</title><path class="cls-1" d="M215.17542,380.3377c0-8.3763-7.25672-16.7812-16.20832-16.7812h-1.6928a14.51566,14.51566,0,0,0-14.5156,14.5156l-.08328,28.2656-7,9.1667h241.6315a19.79826,19.79826,0,0,0,19.7982-19.7982V380.3377Z"/><rect class="cls-2" x="245.17542" y="84.3377" width="72.5" height="36.5"/><polygon class="cls-2" points="128.675 476.338 128.675 95.671 114.175 95.671 114.175 476.338 114.175 490.838 128.675 490.838 384.675 490.838 384.675 476.338 128.675 476.338"/><line class="cls-3" x1="407.17542" y1="196.9727" x2="392.11792" y2="212.0302"/><line class="cls-3" x1="392.11792" y1="196.9727" x2="407.17542" y2="212.0302"/><rect class="cls-1" x="431.63542" y="313.0848" width="8.1826" height="4"/><rect class="cls-1" x="453.94692" y="313.0848" width="8.1826" height="4"/><rect class="cls-1" x="444.88242" y="322.1492" width="4" height="8.1826"/><rect class="cls-1" x="444.88242" y="299.8377" width="4" height="8.1826"/><rect class="cls-2" x="395.58172" y="82.3377" width="8.1826" height="4"/><rect class="cls-2" x="417.89422" y="82.3377" width="8.1816" height="4"/><rect class="cls-2" x="408.82872" y="91.4022" width="4" height="8.1826"/><rect class="cls-2" x="408.82872" y="69.0906" width="4" height="8.1826"/><circle class="cls-1" cx="407.20962" cy="494.9816" r="7.3188"/><circle class="cls-2" cx="421.92542" cy="273.6483" r="6.2991"/><path class="cls-4" d="M192.17542,163.3377a12.25,12.25,0,1,0,12.25,12.25A12.26357,12.26357,0,0,0,192.17542,163.3377Zm0,20.5a8.25,8.25,0,1,1,8.25-8.25A8.25967,8.25967,0,0,1,192.17542,183.8377Z"/><rect class="cls-4" x="207.92542" y="173.5877" width="133.25" height="4"/><path class="cls-4" d="M192.17542,191.1854a12.25,12.25,0,1,0,12.25,12.25A12.26357,12.26357,0,0,0,192.17542,191.1854Zm0,20.5a8.25,8.25,0,1,1,8.25-8.25A8.25967,8.25967,0,0,1,192.17542,211.6854Z"/><rect class="cls-4" x="207.92542" y="201.4354" width="133.25" height="4"/><path class="cls-4" d="M192.17542,219.032a12.25,12.25,0,1,0,12.25,12.25A12.26363,12.26363,0,0,0,192.17542,219.032Zm0,20.5a8.25,8.25,0,1,1,8.25-8.25A8.25961,8.25961,0,0,1,192.17542,239.532Z"/><rect class="cls-4" x="207.92542" y="229.282" width="142.25" height="4"/><path class="cls-4" d="M192.17542,246.8797a12.25,12.25,0,1,0,12.25,12.25A12.26357,12.26357,0,0,0,192.17542,246.8797Zm0,20.5a8.25,8.25,0,1,1,8.25-8.25A8.25967,8.25967,0,0,1,192.17542,267.3797Z"/><rect class="cls-4" x="207.92542" y="257.1297" width="162.083" height="4"/><path class="cls-4" d="M192.17542,274.7264a12.25,12.25,0,1,0,12.25,12.25A12.26357,12.26357,0,0,0,192.17542,274.7264Zm0,20.5a8.25,8.25,0,1,1,8.25-8.25A8.25967,8.25967,0,0,1,192.17542,295.2264Z"/><rect class="cls-4" x="207.92542" y="284.9764" width="162.083" height="4"/><path class="cls-4" d="M192.17542,302.574a12.25,12.25,0,1,0,12.25,12.25A12.26357,12.26357,0,0,0,192.17542,302.574Zm0,20.5a8.25,8.25,0,1,1,8.25-8.25A8.25961,8.25961,0,0,1,192.17542,323.074Z"/><rect class="cls-4" x="207.92542" y="312.824" width="162.083" height="4"/><path class="cls-4" d="M192.17542,330.4207a12.25,12.25,0,1,0,12.25,12.25A12.26357,12.26357,0,0,0,192.17542,330.4207Zm0,20.5a8.25,8.25,0,1,1,8.25-8.25A8.25967,8.25967,0,0,1,192.17542,350.9207Z"/><rect class="cls-4" x="207.92542" y="340.6707" width="162.083" height="4"/><path class="cls-4" d="M473.24862,135.1258a74.05118,74.05118,0,0,0-56.1152-20.6367,72.80894,72.80894,0,0,0-18.125,3.5091V95.6707h-79.333V82.3377h-.1946a12.166,12.166,0,0,0-12.1365-9.667h-72.5c-6.7988,0-12.33,5.2334-12.33,11.667v11.333H127.00842v382.667h272v-60.833h18.667a21.45394,21.45394,0,0,0,21.4297-21.4297V382.3377h33.0703v-2c0-6.418-1.8018-11.3398-5.3555-14.6309a16.84107,16.84107,0,0,0-11.707-4.1503h-56.1045V267.8826a75.27168,75.27168,0,0,0,7.6006-4.9785,25.9576,25.9576,0,0,1,3.1074-2.0723,74.72732,74.72732,0,0,0,13.3115.9981,73.7492,73.7492,0,0,0,50.2207-126.7041ZM247.17542,86.3377h68.5v32.5h-68.5Zm68.2025-4H246.98079a11.36749,11.36749,0,0,0-2.8646-5.667h63.22812A8.25355,8.25355,0,0,1,315.37792,82.3377Zm-88.86362,2c0-4.2275,3.7373-7.667,8.33-7.667,4.5938,0,8.33112,3.4395,8.33112,7.667v11.333H226.51429Zm-95.50588,15.333h7.334v374.667h-7.334Zm264,374.667h-252.666V99.6707h6v300.667c0,9.4229,8.09568,17.0912,18.07318,17.1606v.0064H395.00842Zm40.0967-78.2627a17.44991,17.44991,0,0,1-17.4297,17.4297H178.2132a16.76587,16.76587,0,0,0,6.54522-13.167V378.7234c0-7.2607,6.374-13.1669,14.209-13.1669,8.13178,0,14.208,7.8037,14.208,14.7812v2h221.9297Zm20.0703-30.5185.1455-.0049a12.91667,12.91667,0,0,1,8.8135,3.1201c2.3281,2.1738,3.6601,5.4199,3.9707,9.666h-251.043a19.40293,19.40293,0,0,0-7.1513-12.7812Zm-60.167-4h-196.041c-10.04,0-18.209,7.7011-18.209,17.1669v21.6143c0,7.2607-6.374,13.167-14.208,13.167s-14.208-5.9063-14.208-13.167V99.6707h90.833v23.167h76.5V99.6707h75.333v19.7656a73.7546,73.7546,0,0,0-3.9297,135.6592c-.7422,1.7549-4.707,6.6211-14.3965,12.127a3.41307,3.41307,0,0,0,1.6797,6.3847h.0459a41.619,41.619,0,0,0,16.6006-3.7249Zm27.9609-103.7266a71.04929,71.04929,0,0,1-12.832-.9834c-1.5967-.2715-3.1172.8242-5.8721,2.8164-4.7402,3.4268-12.4687,9.0156-23.5771,9.8437,8.8135-5.3662,14.6904-11.3994,14.5176-15.0459a3.06623,3.06623,0,0,0-1.8213-2.7099,69.52321,69.52321,0,0,1-41.1494-66.586c1.4355-35.1728,30.0527-64.4628,65.1504-66.6835q2.31735-.14655,4.6113-.1465a68.97728,68.97728,0,0,1,48.4678,19.6631,69.74888,69.74888,0,0,1-47.4952,119.832Z"/><rect class="cls-4" x="381.92542" y="152.8377" width="76.25" height="4"/><rect class="cls-4" x="381.92542" y="164.5877" width="76.25" height="4"/><rect class="cls-4" x="381.92542" y="176.4627" width="76.25" height="4"/><path class="cls-4" d="M382.07132,221.921h34.5v-34.5h-34.5Zm4-30.5h26.5v26.5h-26.5Z"/><polygon class="cls-4" points="454.113 217.838 425.675 217.838 425.675 191.483 452.999 191.483 452.999 187.483 421.675 187.483 421.675 221.838 458.113 221.838 458.113 202.255 454.113 202.255 454.113 217.838"/><polygon class="cls-4" points="405.761 195.558 399.647 201.673 393.532 195.558 390.704 198.387 396.819 204.501 390.704 210.616 393.532 213.444 399.647 207.329 405.761 213.444 408.59 210.616 402.475 204.501 408.59 198.387 405.761 195.558"/><polygon class="cls-4" points="439.465 206.146 434.999 201.68 432.171 204.508 439.214 211.552 466.452 188.96 463.899 185.882 439.465 206.146"/><rect class="cls-4" x="88.7506" y="500.0047" width="6.84182" height="4"/><rect class="cls-4" x="107.4078" y="500.0047" width="6.8418" height="4"/><rect class="cls-4" x="99.5006" y="507.9119" width="4" height="6.8418"/><rect class="cls-4" x="99.5006" y="489.2547" width="4" height="6.8418"/><path class="cls-4" d="M81.4322,305.5047a9.31885,9.31885,0,1,0,9.3184,9.3193A9.33,9.33,0,0,0,81.4322,305.5047Zm0,14.6377a5.31885,5.31885,0,1,1,5.3184-5.3184A5.32516,5.32516,0,0,1,81.4322,320.1424Z"/><path class="cls-4" d="M258.92442,455.2625l1.77638,1.4951H367.28092l19.5527-10.4179-19.5527-10.419H260.70079l-1.77738,1.4951a11.6634,11.6634,0,0,0,.001,17.8467Zm104.2885-10.9228h-84.2885v-4.419h85.1463A22.25106,22.25106,0,0,0,363.21292,444.3397Zm-84.2885,4h84.2885a22.235,22.235,0,0,0,.8578,4.4179h-85.1463Zm89.0469,3.5173-.0313-.1004a18.14453,18.14453,0,0,1,0-10.8349l.0313-.1003,10.3564,5.5183ZM261.49859,440.4764l.6612-.5557h12.76462v12.8369H262.15979l-.6602-.5556a7.66393,7.66393,0,0,1-.001-11.7256Z"/></svg>