<svg xmlns="http://www.w3.org/2000/svg" width="90" height="90" fill="none" viewBox="0 0 90 90">
    <path fill="#C8821C" fill-rule="evenodd" d="M44.996 83.376C23.843 83.376 6.635 66.157 6.635 45c0-8.442 2.765-16.236 7.416-22.583l5.569 3.6C15.5 31.488 13.27 38.151 13.27 45c0 17.503 14.227 31.73 31.726 31.73 17.5 0 31.73-14.227 31.73-31.73 0-17.51-14.23-31.73-31.73-31.73-4.86 0-9.439 1.13-13.572 3.088l-2.718-6.04C33.798 7.898 39.363 6.636 45 6.624c21.154 0 38.372 17.215 38.372 38.376 0 21.157-17.218 38.376-38.376 38.376zM30.791 33.21c-2.755 3.311-4.262 7.483-4.259 11.79 0 10.18 8.28 18.468 18.464 18.468 4.897-.007 9.59-1.954 13.053-5.416C61.512 54.59 63.46 49.896 63.468 45c-.007-4.896-1.955-9.59-5.417-13.052-3.462-3.462-8.155-5.41-13.051-5.416-2.825.001-5.612.654-8.143 1.908l-2.715-6.034c3.382-1.65 7.095-2.51 10.858-2.512 13.842 0 25.103 11.271 25.103 25.106S58.842 70.092 45 70.092c-13.835 0-25.1-11.257-25.1-25.092 0-5.789 1.995-11.135 5.307-15.39l5.587 3.6h-.003zm11.534 7.416L39.6 34.524c1.665-.876 3.515-1.34 5.396-1.354 2.34 0 4.629.694 6.575 1.995 1.946 1.3 3.463 3.149 4.358 5.311.896 2.163 1.13 4.542.673 6.837-.457 2.296-1.584 4.404-3.24 6.06-1.655 1.654-3.764 2.78-6.06 3.237-2.295.456-4.674.221-6.837-.675-2.162-.896-4.01-2.413-5.31-4.36-1.3-1.946-1.992-4.235-1.992-6.575 0-3.168 1.267-6.023 3.294-8.165l5.868 3.791zM45 0c-6.8 0-13.22 1.559-19.004 4.273-1.474.681-2.906 1.447-4.292 2.293l3.312 5.728 3.316 5.76L31.63 23.8l3.308 5.734 3.323 5.757 1.245 2.189-1.95-1.613-5.21-4.295-5.148-4.259-5.12-4.205-5.115-4.219-5.108-4.223c-1.206 1.325-2.34 2.7-3.388 4.162C2.968 26.448.006 35.604 0 45c0 24.811 20.189 45 44.996 45C69.804 90 90 69.811 90 45 90 20.185 69.804 0 44.996 0H45z" clip-rule="evenodd"/>
</svg>
