<svg width="914" height="914" viewBox="0 0 914 914" fill="none" xmlns="http://www.w3.org/2000/svg">
<path d="M457.315 697.48C590.206 697.48 697.48 590.206 697.48 457.315C697.48 324.423 590.206 217.149 457.315 217.149C415.152 217.149 375.125 227.823 340.968 247.037L392.737 340.434C412.493 329.487 434.728 323.791 457.315 323.889C530.965 323.889 590.74 383.664 590.74 457.315C590.74 530.965 530.965 590.74 457.315 590.74C383.664 590.74 323.889 530.965 323.889 457.315C323.855 433.037 330.502 409.219 343.102 388.467L251.306 333.496C229.424 369.788 217.149 411.95 217.149 457.315C217.149 590.206 324.423 697.48 457.315 697.48ZM457.315 913.629C709.755 913.629 913.629 709.755 913.629 457.315C913.629 204.874 709.755 1.00038 457.315 1.00038C379.832 0.900017 303.603 20.5542 235.828 58.1064L288.131 151.504C337.765 123.218 396.473 107.741 457.315 107.741C651.048 107.741 806.889 263.581 806.889 457.315C806.889 651.048 651.048 806.889 457.315 806.889C263.581 806.889 107.74 651.048 107.74 457.315C107.813 393.75 125.153 331.399 157.908 276.924L66.1115 222.486C24.4828 290.8 1 371.389 1 457.315C1 709.755 204.874 913.629 457.315 913.629Z" fill="black"/>
</svg>
